<svg version="1.0" xmlns="http://www.w3.org/2000/svg" width="71pt" height="73pt" viewBox="0 0 1280 1194"><path d="M358.5 2.1c-28.2 4.4-48 11.7-69.5 25.6-36.3 23.5-62.7 62.2-71.4 104.5-2.7 13.3-6 59.5-5.1 71.4 2.9 37 17.6 69.4 43.1 94.8 20.1 20.1 45 33.6 73.3 39.6l10.1 2.2 284.7.4c156.7.2 292.2.5 301.3.6 12.5.1 18.5-.3 25-1.6 70.5-14.8 119.9-73.3 120.4-142.6.1-17-1.8-43.8-3.9-56.3-12.5-71-70.7-127.5-142-137.7-4.4-.6-10.7-1.5-14.1-2.1-8.2-1.2-28.9-1.2-39.4.2-40.8 5.2-61.3 10.4-88.2 22.5-43.3 19.4-82.2 52.8-108.7 93.3-14.3 21.9-22.7 40.6-32.7 72.9-.9 3.1-2.8.1-5.4-8.3-8.6-28.7-23.7-57.8-42.8-82.5-9-11.6-28.7-31.6-40.4-41.1-24.1-19.4-49.3-33.3-78.8-43.4-19.2-6.5-32.4-9.3-65-13.4-12.8-1.6-36.6-1.2-50.5 1zM395.6 85c30.9 2.5 57.4 11.3 81.4 27 45.4 29.7 73.3 76.5 77.9 130.4.8 8.7.7 12.3-.1 13.3-.9 1.1-17.4 1.3-96.7 1.1-106.8-.4-99.3.1-115.6-7.7-20.8-9.9-36.7-29.2-42.6-51.7-1.7-6.5-2.1-11.1-2.1-25.9-.1-21.8 1.1-28.4 8.4-43.3 10.6-21.8 30.4-37.1 54.8-42.3 10-2.1 17.1-2.3 34.6-.9zm522 2.5c27.4 6.9 50.3 27.8 59.6 54.5 5.4 15.6 6.8 40.6 2.9 55.2-5.9 22.6-21 41.2-41.6 51.4-17.1 8.4-9 7.8-116.6 8.2-79.4.2-95.8 0-96.7-1.1-1.4-1.6 0-19.9 2.4-32.2 13.2-68 66.4-121.7 134.1-135.5 21.2-4.2 40.1-4.4 55.9-.5zM0 511.5V596h554l-.2-84.3-.3-84.2-276.7-.3L0 427v84.5zm726.7-83.8c-.4.3-.7 38.4-.7 84.5V596h554V427h-276.3c-152 0-276.7.3-277 .7zM86.4 684.3c-.2.7-.3 90.6-.1 199.7.3 218.4-.1 201.9 6.3 221.5 11 33.1 34.3 59.7 65.9 75 11.1 5.3 22.5 8.8 37.7 11.5 11.4 2 15.1 2 184.7 2H554l-.2-255.3-.3-255.2-233.3-.3c-189.3-.2-233.4 0-233.8 1.1zm640.3-.6c-.4.3-.7 115.3-.7 255.5V1194h173.1c169.6 0 173.3 0 184.7-2 15.2-2.7 26.6-6.2 37.7-11.5 32-15.5 55.7-42.8 66.3-76.5 6-19.1 5.7-7.1 5.7-222.5v-198l-233.1-.3c-128.2-.1-233.4.1-233.7.5z"/></svg>