<svg version="1.0" xmlns="http://www.w3.org/2000/svg" width="50pt" height="67pt" viewBox="0 0 948 1280"><path d="M452.2 6.1c-103.8 4.6-201 47.6-269.9 119.3-49.8 51.8-81 114.5-90.2 181.6-2.6 18.3-3.1 42.1-3.1 145.2V561H4.9l-2.4 2.5-2.5 2.4v685.2l2.5 2.4 2.4 2.5h931.8l2.1-2.3 2.2-2.3V565.9l-2.5-2.4-2.4-2.5H852V453.2c0-106.3-.6-130.8-3.5-149.9-10.2-68-40.8-128.8-90.5-179.7-31.8-32.7-64.8-56.5-106.4-77C604.1 23.2 546.3 8.4 495 6.5c-8-.3-17-.7-20-.9-3-.1-13.3.1-22.8.5zM497.1 124c56.1 5.5 106.8 25.5 147.4 58.3 9.4 7.5 28.2 26.4 35.6 35.7 24.5 30.7 40.5 68.7 44.9 106.5.6 5.6 1 51.5 1 122.8V561l-254.7-.2-254.8-.3V447c0-125 0-123.9 6.4-149.1 20.2-80 88.6-143.9 177.9-166.3 13-3.2 35.6-7 47.2-7.9 10.6-.8 39.6-.6 49.1.3z"/></svg>